# xmcd
#
# Track frame offsets: 
#        150
#        19839
#        38685
#        57479
#        75777
#        92019
#        111235
#        128437
#        149047
#        166042
#
# Disc length: 2484 seconds
#
# Revision: 1
# Processed by: cddbd v1.5.2PL0 Copyright (c) Steve Scherf et al.
# Submitted via: ExactAudioCopyFreeDBPlugin 1.0
#
DISCID=7509b20a
DTITLE=Various Artist - Turkce Pop 120
DYEAR=2012
DGENRE=Turkce Pop
TTITLE0=Tarkan - Adımı Kalbine Yaz - Ozinga Club Mix
TTITLE1=Sezen Aksu - Unuttun mu Beni
TTITLE2=Ajda Pekkan - Heves
TTITLE3=Funda Arar - Anmam Adını
TTITLE4=Sertab Erener - Bir Çaresi Bulunur
TTITLE5=Model - Pembe Mezarlık
TTITLE6=Burcu Gunes - Oflaya Oflaya
TTITLE7=Zakkum - Anason
TTITLE8=Gulsen - Sozde Ayrılık
TTITLE9=Eren Sandal - Rüzgar
EXTD=
EXTT0=
EXTT1=
EXTT2=
EXTT3=
EXTT4=
EXTT5=
EXTT6=
EXTT7=
EXTT8=
EXTT9=
PLAYORDER=
